<svg width="261" height="261" viewBox="0 0 261 261" fill="none" xmlns="http://www.w3.org/2000/svg">
<rect width="260.883" height="260.883" rx="63.1168" fill="#171717"/>
<path d="M178.471 54.7216C184.215 54.3959 181.79 62.3868 181.241 65.913C180.413 71.5669 179.418 77.1956 178.261 82.7917L170.121 124.566C167.641 137.778 163.562 154.154 164.684 167.535C164.972 170.124 166.711 175.049 169.007 176.401C179.85 182.789 193.448 172.407 200.441 164.524C201.392 163.454 204.491 159.174 205.372 159.021C208.889 159.797 205.507 164.127 204.436 165.959C194.6 182.769 158.981 213.392 141.632 191.328C133.168 180.564 138.589 158.479 140.984 145.286C137.626 145.594 134.183 146.398 130.827 146.822C125.431 147.504 119.955 147.961 114.53 148.353C114.191 150.913 113.304 154.88 112.797 157.52L108.788 177.976L106.188 191.722C104.178 202.163 104.689 201.188 94.8279 205.164C89.62 207.264 84.1154 209.524 78.8073 211.534C77.8208 210.781 77.0661 210.371 77.2224 208.998C77.5527 206.094 78.186 203.196 78.7349 200.322L82.6312 180.572C84.2876 171.189 86.122 161.839 88.1333 152.526L88.0268 152.546C72.9382 155.458 52.571 166.348 46.3112 181.67C45.8991 182.679 46.3173 184.703 45.5896 185.655C43.8975 187.879 40.9565 184.909 39.5096 183.818C21.2977 170.084 35.4635 148.562 51.5149 140.848C53.8913 139.705 56.3117 137.89 58.9177 136.798C69.4542 132.384 81.0935 129.814 92.4556 128.748C96.0491 118.495 96.8312 104.811 99.5642 94.0788C100.291 91.2248 101.138 81.2593 103.511 79.7247C108.276 76.6424 114.906 74.7792 120.18 72.6107C122.707 71.5842 125.284 69.6833 127.943 69.3065C129.464 69.1511 129.799 71.8649 129.651 72.882C128.929 77.8496 127.612 82.7059 126.689 87.6445L119.231 127.372C122.55 127.296 127.531 126.91 130.827 126.424C139.825 124.696 136.369 125.56 144.823 122.741C147.433 108.046 150.182 93.3759 153.07 78.7329C153.615 75.826 155.184 64.2856 156.219 62.5757C156.849 61.5354 157.685 61.0244 158.773 60.525C160.734 59.6239 163.003 59.2391 165.07 58.6217C169.517 57.2943 173.962 55.8294 178.471 54.7216Z" fill="#FFFEF4"/>
<path d="M204.811 96.1787C205.381 96.3202 205.508 96.3752 206.031 96.6448C206.567 97.3943 207.295 101.325 207.704 102.519C210.663 111.19 212.073 115.132 221.298 117.821C223.526 118.47 225.873 118.603 227.904 119.677C228.277 120.17 228.207 120.49 228.19 121.098C228.103 121.262 227.999 121.456 227.881 121.678C222.844 123.75 215.252 124.754 211.628 129.403C209.816 131.73 207.713 138.255 206.993 141.225C206.592 142.871 206.438 144.222 205.059 145.133L204.057 144.784C202.958 143.759 202.156 138.766 201.664 136.998C201.209 135.376 200.673 133.778 200.059 132.21C199.79 131.513 198.981 129.512 198.483 128.969C195.891 126.15 191.473 124.388 187.843 123.455C186.024 122.987 184.294 122.725 182.595 122.032C181.911 121.753 181.884 121.528 181.695 120.982C181.799 120.485 181.797 120.258 182.237 119.952C183.165 119.308 184.768 119.019 185.853 118.713C189.944 117.559 194.059 116.297 197.293 113.387C201.671 109.449 202.401 97.9056 204.811 96.1787Z" fill="#FFFEF4"/>
</svg>
